<svg width="408" height="172" viewBox="0 0 408 172" fill="none" xmlns="http://www.w3.org/2000/svg">
<g clip-path="url(#clip0_835_644)">
<path d="M0 38.2222C0 17.1127 17.1127 0 38.2222 0H133.778C154.887 0 172 17.1127 172 38.2222V133.778C172 154.887 154.887 172 133.778 172H38.2222C17.1127 172 0 154.887 0 133.778V38.2222Z" fill="#29A19C"/>
<path d="M125.083 35.75H101.745C99.4 29.2734 93.2583 24.5834 86 24.5834C78.7417 24.5834 72.6 29.2734 70.255 35.75H46.9167C40.775 35.75 35.75 40.775 35.75 46.9167V125.083C35.75 131.225 40.775 136.25 46.9167 136.25H125.083C131.225 136.25 136.25 131.225 136.25 125.083V46.9167C136.25 40.775 131.225 35.75 125.083 35.75ZM86 35.75C89.0708 35.75 91.5833 38.2625 91.5833 41.3334C91.5833 44.4042 89.0708 46.9167 86 46.9167C82.9292 46.9167 80.4167 44.4042 80.4167 41.3334C80.4167 38.2625 82.9292 35.75 86 35.75ZM97.1667 113.917H58.0833V102.75H97.1667V113.917ZM113.917 91.5834H58.0833V80.4167H113.917V91.5834ZM113.917 69.25H58.0833V58.0834H113.917V69.25Z" fill="#FAFAFA"/>
</g>
<path d="M197.496 69.6869V30.1785H182V22.8125H221.675V30.1785H206.179V69.6869H197.496Z" fill="#29A19C"/>
<path d="M249.477 69.6869V62.4549L249.01 60.9147V48.2586C249.01 45.8033 248.275 43.906 246.806 42.5667C245.336 41.1828 243.11 40.4908 240.126 40.4908C238.123 40.4908 236.141 40.8033 234.182 41.4283C232.267 42.0533 230.642 42.9239 229.306 44.0399L226.033 37.9462C227.948 36.473 230.219 35.3793 232.846 34.665C235.518 33.9061 238.278 33.5266 241.128 33.5266C246.294 33.5266 250.279 34.7766 253.084 37.2766C255.934 39.7319 257.359 43.5488 257.359 48.7274V69.6869H249.477ZM238.256 70.1557C235.584 70.1557 233.247 69.7093 231.243 68.8164C229.239 67.8789 227.681 66.6066 226.567 64.9995C225.499 63.3477 224.964 61.4951 224.964 59.4415C224.964 57.4326 225.432 55.6246 226.367 54.0175C227.347 52.4104 228.927 51.138 231.109 50.2006C233.291 49.2631 236.186 48.7943 239.792 48.7943H250.145V54.3523H240.394C237.544 54.3523 235.629 54.821 234.649 55.7585C233.67 56.6514 233.18 57.7674 233.18 59.1067C233.18 60.6245 233.781 61.8299 234.983 62.7227C236.186 63.6156 237.855 64.062 239.993 64.062C242.041 64.062 243.867 63.5933 245.47 62.6558C247.117 61.7183 248.297 60.3344 249.01 58.504L250.413 63.5263C249.611 65.6245 248.164 67.2539 246.071 68.4146C244.023 69.5753 241.418 70.1557 238.256 70.1557Z" fill="#29A19C"/>
<path d="M281.099 70.1557C278.115 70.1557 275.243 69.7762 272.483 69.0173C269.766 68.2137 267.607 67.2539 266.004 66.1379L269.21 59.7763C270.813 60.8031 272.727 61.6513 274.954 62.3209C277.18 62.9906 279.407 63.3254 281.633 63.3254C284.26 63.3254 286.153 62.9683 287.311 62.254C288.513 61.5397 289.114 60.5799 289.114 59.3746C289.114 58.3924 288.713 57.6558 287.912 57.1648C287.11 56.6291 286.064 56.2273 284.772 55.9594C283.481 55.6916 282.034 55.446 280.431 55.2228C278.872 54.9996 277.292 54.7094 275.689 54.3523C274.13 53.9505 272.705 53.3925 271.414 52.6782C270.122 51.9193 269.076 50.9148 268.275 49.6648C267.473 48.4149 267.072 46.7631 267.072 44.7095C267.072 42.4328 267.718 40.4685 269.009 38.8168C270.301 37.1203 272.104 35.8257 274.42 34.9329C276.78 33.9954 279.563 33.5266 282.769 33.5266C285.173 33.5266 287.6 33.7945 290.049 34.3302C292.498 34.8659 294.524 35.6248 296.127 36.607L292.921 42.9685C291.229 41.9417 289.515 41.2498 287.778 40.8926C286.086 40.4908 284.394 40.29 282.702 40.29C280.164 40.29 278.271 40.6694 277.024 41.4283C275.822 42.1873 275.221 43.1471 275.221 44.3078C275.221 45.3792 275.622 46.1827 276.423 46.7184C277.225 47.2542 278.271 47.6783 279.563 47.9908C280.854 48.3033 282.279 48.5711 283.837 48.7943C285.44 48.9729 287.021 49.2631 288.58 49.6648C290.138 50.0666 291.563 50.6247 292.854 51.3389C294.19 52.0086 295.259 52.9684 296.061 54.2184C296.862 55.4684 297.263 57.0978 297.263 59.1067C297.263 61.3388 296.595 63.2808 295.259 64.9325C293.968 66.5843 292.12 67.8789 289.715 68.8164C287.311 69.7093 284.439 70.1557 281.099 70.1557Z" fill="#29A19C"/>
<path d="M313.27 61.7183L313.47 51.205L332.105 33.9284H342.124L326.294 49.8657L321.886 53.5487L313.27 61.7183ZM306.457 69.6869V20H314.806V69.6869H306.457ZM333.375 69.6869L320.35 53.5487L325.627 46.8524L343.527 69.6869H333.375Z" fill="#29A19C"/>
<path d="M360.836 70.1557C357.853 70.1557 354.98 69.7762 352.22 69.0173C349.503 68.2137 347.344 67.2539 345.741 66.1379L348.947 59.7763C350.55 60.8031 352.465 61.6513 354.691 62.3209C356.917 62.9906 359.144 63.3254 361.37 63.3254C363.998 63.3254 365.89 62.9683 367.048 62.254C368.25 61.5397 368.851 60.5799 368.851 59.3746C368.851 58.3924 368.45 57.6558 367.649 57.1648C366.847 56.6291 365.801 56.2273 364.51 55.9594C363.218 55.6916 361.771 55.446 360.168 55.2228C358.61 54.9996 357.029 54.7094 355.426 54.3523C353.867 53.9505 352.442 53.3925 351.151 52.6782C349.86 51.9193 348.813 50.9148 348.012 49.6648C347.21 48.4149 346.809 46.7631 346.809 44.7095C346.809 42.4328 347.455 40.4685 348.746 38.8168C350.038 37.1203 351.841 35.8257 354.157 34.9329C356.517 33.9954 359.3 33.5266 362.506 33.5266C364.91 33.5266 367.337 33.7945 369.786 34.3302C372.235 34.8659 374.261 35.6248 375.865 36.607L372.658 42.9685C370.966 41.9417 369.252 41.2498 367.515 40.8926C365.823 40.4908 364.131 40.29 362.439 40.29C359.901 40.29 358.008 40.6694 356.762 41.4283C355.559 42.1873 354.958 43.1471 354.958 44.3078C354.958 45.3792 355.359 46.1827 356.16 46.7184C356.962 47.2542 358.008 47.6783 359.3 47.9908C360.591 48.3033 362.016 48.5711 363.575 48.7943C365.178 48.9729 366.758 49.2631 368.317 49.6648C369.875 50.0666 371.3 50.6247 372.592 51.3389C373.927 52.0086 374.996 52.9684 375.798 54.2184C376.599 55.4684 377 57.0978 377 59.1067C377 61.3388 376.332 63.2808 374.996 64.9325C373.705 66.5843 371.857 67.8789 369.452 68.8164C367.048 69.7093 364.176 70.1557 360.836 70.1557Z" fill="#29A19C"/>
<path d="M188.011 151.531V104.657H209.92C215.53 104.657 219.805 105.773 222.744 108.005C225.683 110.192 227.152 113.139 227.152 116.844C227.152 119.344 226.573 121.487 225.416 123.273C224.258 125.014 222.699 126.375 220.74 127.357C218.825 128.295 216.733 128.764 214.462 128.764L215.664 126.353C218.291 126.353 220.651 126.844 222.744 127.826C224.837 128.764 226.484 130.148 227.687 131.978C228.933 133.808 229.557 136.085 229.557 138.808C229.557 142.826 228.021 145.951 224.948 148.183C221.876 150.415 217.311 151.531 211.255 151.531H188.011ZM196.695 144.701H210.721C213.972 144.701 216.465 144.165 218.202 143.094C219.939 142.022 220.807 140.304 220.807 137.938C220.807 135.616 219.939 133.92 218.202 132.848C216.465 131.732 213.972 131.174 210.721 131.174H196.027V124.411H208.985C212.012 124.411 214.328 123.875 215.931 122.804C217.579 121.732 218.402 120.125 218.402 117.983C218.402 115.795 217.579 114.166 215.931 113.094C214.328 112.023 212.012 111.487 208.985 111.487H196.695V144.701Z" fill="#29A19C"/>
<path d="M256.057 152C252.405 152 249.155 151.219 246.305 149.656C243.455 148.049 241.206 145.862 239.559 143.094C237.911 140.326 237.087 137.179 237.087 133.652C237.087 130.081 237.911 126.933 239.559 124.21C241.206 121.442 243.455 119.277 246.305 117.715C249.155 116.152 252.405 115.371 256.057 115.371C259.752 115.371 263.025 116.152 265.875 117.715C268.77 119.277 271.018 121.42 272.621 124.143C274.269 126.866 275.093 130.036 275.093 133.652C275.093 137.179 274.269 140.326 272.621 143.094C271.018 145.862 268.77 148.049 265.875 149.656C263.025 151.219 259.752 152 256.057 152ZM256.057 144.835C258.105 144.835 259.931 144.388 261.534 143.496C263.137 142.603 264.383 141.308 265.274 139.612C266.209 137.915 266.677 135.929 266.677 133.652C266.677 131.331 266.209 129.344 265.274 127.692C264.383 125.996 263.137 124.701 261.534 123.808C259.931 122.916 258.127 122.469 256.123 122.469C254.075 122.469 252.249 122.916 250.646 123.808C249.088 124.701 247.841 125.996 246.906 127.692C245.971 129.344 245.503 131.331 245.503 133.652C245.503 135.929 245.971 137.915 246.906 139.612C247.841 141.308 249.088 142.603 250.646 143.496C252.249 144.388 254.053 144.835 256.057 144.835Z" fill="#29A19C"/>
<path d="M301.111 152C297.459 152 294.209 151.219 291.359 149.656C288.509 148.049 286.26 145.862 284.613 143.094C282.965 140.326 282.141 137.179 282.141 133.652C282.141 130.081 282.965 126.933 284.613 124.21C286.26 121.442 288.509 119.277 291.359 117.715C294.209 116.152 297.459 115.371 301.111 115.371C304.807 115.371 308.08 116.152 310.929 117.715C313.824 119.277 316.072 121.42 317.676 124.143C319.323 126.866 320.147 130.036 320.147 133.652C320.147 137.179 319.323 140.326 317.676 143.094C316.072 145.862 313.824 148.049 310.929 149.656C308.08 151.219 304.807 152 301.111 152ZM301.111 144.835C303.159 144.835 304.985 144.388 306.588 143.496C308.191 142.603 309.438 141.308 310.328 139.612C311.263 137.915 311.731 135.929 311.731 133.652C311.731 131.331 311.263 129.344 310.328 127.692C309.438 125.996 308.191 124.701 306.588 123.808C304.985 122.916 303.181 122.469 301.178 122.469C299.129 122.469 297.304 122.916 295.701 123.808C294.142 124.701 292.895 125.996 291.96 127.692C291.025 129.344 290.557 131.331 290.557 133.652C290.557 135.929 291.025 137.915 291.96 139.612C292.895 141.308 294.142 142.603 295.701 143.496C297.304 144.388 299.107 144.835 301.111 144.835Z" fill="#29A19C"/>
<path d="M336.947 143.563L337.148 133.049L355.783 115.773H365.802L349.972 131.71L345.564 135.393L336.947 143.563ZM330.135 151.531V101.844H338.484V151.531H330.135ZM357.052 151.531L344.028 135.393L349.304 128.697L367.205 151.531H357.052Z" fill="#29A19C"/>
<defs>
<clipPath id="clip0_835_644">
<rect width="172" height="172" fill="white"/>
</clipPath>
</defs>
</svg>
